<svg xmlns="http://www.w3.org/2000/svg" xmlns:xlink="http://www.w3.org/1999/xlink" width="396" zoomAndPan="magnify" viewBox="0 0 297.12 419.249996" height="559" preserveAspectRatio="xMidYMid meet" version="1.0"><defs><clipPath id="d3da8a53fa"><path d="M 0 0.246094 L 296.121094 0.246094 L 296.121094 417.203125 L 0 417.203125 Z M 0 0.246094 " clip-rule="nonzero"/></clipPath><clipPath id="5d7fa5417f"><path d="M 42.625 132 L 253.714844 132 L 253.714844 335.332031 L 42.625 335.332031 Z M 42.625 132 " clip-rule="nonzero"/></clipPath></defs><g clip-path="url(#d3da8a53fa)"><path fill="#ffffff" d="M 0 0.246094 L 296.121094 0.246094 L 296.121094 417.203125 L 0 417.203125 Z M 0 0.246094 " fill-opacity="1" fill-rule="nonzero"/><path fill="#ffd2e7" d="M 0 0.246094 L 296.121094 0.246094 L 296.121094 417.203125 L 0 417.203125 Z M 0 0.246094 " fill-opacity="1" fill-rule="nonzero"/></g><g clip-path="url(#5d7fa5417f)"><path fill="#77b255" d="M 190.25 132.203125 C 169.210938 132.203125 169.210938 139.207031 148.171875 139.207031 C 127.132812 139.207031 127.132812 132.203125 106.089844 132.203125 C 78.039062 132.203125 42.96875 146.210938 42.96875 195.242188 C 42.96875 272.292969 85.050781 335.332031 113.105469 335.332031 C 134.144531 335.332031 134.144531 328.328125 148.171875 328.328125 C 162.199219 328.328125 162.199219 335.332031 183.238281 335.332031 C 211.292969 335.332031 253.371094 272.292969 253.371094 195.242188 C 253.371094 146.203125 218.304688 132.203125 190.25 132.203125 Z M 190.25 132.203125 " fill-opacity="1" fill-rule="nonzero"/></g><path fill="#3e721d" d="M 143.339844 138.367188 C 143.339844 138.367188 130.890625 105.628906 97.191406 95.917969 C 70.238281 88.160156 52.878906 97.742188 52.878906 97.742188 C 52.878906 97.742188 74.003906 125.695312 94.222656 131.515625 C 114.4375 137.328125 143.339844 138.367188 143.339844 138.367188 Z M 143.339844 138.367188 " fill-opacity="1" fill-rule="nonzero"/><path fill="#662113" d="M 148.171875 153.214844 C 144.300781 153.214844 141.15625 150.078125 141.15625 146.210938 C 141.15625 122.109375 149.574219 99.875 164.253906 85.222656 C 166.996094 82.484375 171.429688 82.484375 174.171875 85.222656 C 176.914062 87.960938 176.914062 92.394531 174.171875 95.128906 C 162.101562 107.175781 155.183594 125.792969 155.183594 146.210938 C 155.183594 150.078125 152.042969 153.214844 148.171875 153.214844 Z M 148.171875 153.214844 " fill-opacity="1" fill-rule="nonzero"/></svg>