<svg xmlns="http://www.w3.org/2000/svg" xmlns:xlink="http://www.w3.org/1999/xlink" width="396" zoomAndPan="magnify" viewBox="0 0 297.12 419.249996" height="559" preserveAspectRatio="xMidYMid meet" version="1.0"><defs><clipPath id="d46380f3d7"><path d="M 0 0.246094 L 296.121094 0.246094 L 296.121094 417.203125 L 0 417.203125 Z M 0 0.246094 " clip-rule="nonzero"/></clipPath><clipPath id="5366549a6e"><path d="M 114 98 L 199 98 L 199 148 L 114 148 Z M 114 98 " clip-rule="nonzero"/></clipPath><clipPath id="5df8815416"><path d="M 90.195312 59.132812 L 288.167969 130.203125 L 206.257812 358.363281 L 8.285156 287.292969 Z M 90.195312 59.132812 " clip-rule="nonzero"/></clipPath><clipPath id="94907c513b"><path d="M 90.195312 59.132812 L 288.167969 130.203125 L 206.257812 358.363281 L 8.285156 287.292969 Z M 90.195312 59.132812 " clip-rule="nonzero"/></clipPath><clipPath id="30fe43f602"><path d="M 90.195312 59.132812 L 288.167969 130.203125 L 206.257812 358.363281 L 8.285156 287.292969 Z M 90.195312 59.132812 " clip-rule="nonzero"/></clipPath><clipPath id="54132d5d2f"><path d="M 103 86 L 211 86 L 211 160 L 103 160 Z M 103 86 " clip-rule="nonzero"/></clipPath><clipPath id="0a274d8290"><path d="M 90.195312 59.132812 L 288.167969 130.203125 L 206.257812 358.363281 L 8.285156 287.292969 Z M 90.195312 59.132812 " clip-rule="nonzero"/></clipPath><clipPath id="d3b68e1c74"><path d="M 90.195312 59.132812 L 288.167969 130.203125 L 206.257812 358.363281 L 8.285156 287.292969 Z M 90.195312 59.132812 " clip-rule="nonzero"/></clipPath><clipPath id="277528f615"><path d="M 90.195312 59.132812 L 288.167969 130.203125 L 206.257812 358.363281 L 8.285156 287.292969 Z M 90.195312 59.132812 " clip-rule="nonzero"/></clipPath><clipPath id="260e40a92d"><path d="M 98 105 L 209 105 L 209 263 L 98 263 Z M 98 105 " clip-rule="nonzero"/></clipPath><clipPath id="04ee5b3a8c"><path d="M 90.195312 59.132812 L 288.167969 130.203125 L 206.257812 358.363281 L 8.285156 287.292969 Z M 90.195312 59.132812 " clip-rule="nonzero"/></clipPath><clipPath id="a680b940da"><path d="M 90.195312 59.132812 L 288.167969 130.203125 L 206.257812 358.363281 L 8.285156 287.292969 Z M 90.195312 59.132812 " clip-rule="nonzero"/></clipPath><clipPath id="1a783003e1"><path d="M 90.195312 59.132812 L 288.167969 130.203125 L 206.257812 358.363281 L 8.285156 287.292969 Z M 90.195312 59.132812 " clip-rule="nonzero"/></clipPath><clipPath id="dfa1ab5ec4"><path d="M 32 194 L 133 194 L 133 295 L 32 295 Z M 32 194 " clip-rule="nonzero"/></clipPath><clipPath id="7619bd71de"><path d="M 90.195312 59.132812 L 288.167969 130.203125 L 206.257812 358.363281 L 8.285156 287.292969 Z M 90.195312 59.132812 " clip-rule="nonzero"/></clipPath><clipPath id="d98d1b2f93"><path d="M 90.195312 59.132812 L 288.167969 130.203125 L 206.257812 358.363281 L 8.285156 287.292969 Z M 90.195312 59.132812 " clip-rule="nonzero"/></clipPath><clipPath id="e2990e20c7"><path d="M 90.195312 59.132812 L 288.167969 130.203125 L 206.257812 358.363281 L 8.285156 287.292969 Z M 90.195312 59.132812 " clip-rule="nonzero"/></clipPath><clipPath id="bbfdb74551"><path d="M 126 242 L 226 242 L 226 341 L 126 341 Z M 126 242 " clip-rule="nonzero"/></clipPath><clipPath id="17b2216f46"><path d="M 90.195312 59.132812 L 288.167969 130.203125 L 206.257812 358.363281 L 8.285156 287.292969 Z M 90.195312 59.132812 " clip-rule="nonzero"/></clipPath><clipPath id="970943cbfc"><path d="M 90.195312 59.132812 L 288.167969 130.203125 L 206.257812 358.363281 L 8.285156 287.292969 Z M 90.195312 59.132812 " clip-rule="nonzero"/></clipPath><clipPath id="b38b46ed66"><path d="M 90.195312 59.132812 L 288.167969 130.203125 L 206.257812 358.363281 L 8.285156 287.292969 Z M 90.195312 59.132812 " clip-rule="nonzero"/></clipPath><clipPath id="b1e76b75aa"><path d="M 62 201 L 76 201 L 76 216 L 62 216 Z M 62 201 " clip-rule="nonzero"/></clipPath><clipPath id="c5bf91a17a"><path d="M 90.195312 59.132812 L 288.167969 130.203125 L 206.257812 358.363281 L 8.285156 287.292969 Z M 90.195312 59.132812 " clip-rule="nonzero"/></clipPath><clipPath id="9494ca2d15"><path d="M 90.195312 59.132812 L 288.167969 130.203125 L 206.257812 358.363281 L 8.285156 287.292969 Z M 90.195312 59.132812 " clip-rule="nonzero"/></clipPath><clipPath id="6052e08c2a"><path d="M 90.195312 59.132812 L 288.167969 130.203125 L 206.257812 358.363281 L 8.285156 287.292969 Z M 90.195312 59.132812 " clip-rule="nonzero"/></clipPath><clipPath id="920df66ecf"><path d="M 140 251 L 165 251 L 165 278 L 140 278 Z M 140 251 " clip-rule="nonzero"/></clipPath><clipPath id="0f8fbd7428"><path d="M 90.195312 59.132812 L 288.167969 130.203125 L 206.257812 358.363281 L 8.285156 287.292969 Z M 90.195312 59.132812 " clip-rule="nonzero"/></clipPath><clipPath id="b3bbc0b6ef"><path d="M 90.195312 59.132812 L 288.167969 130.203125 L 206.257812 358.363281 L 8.285156 287.292969 Z M 90.195312 59.132812 " clip-rule="nonzero"/></clipPath><clipPath id="cf7e393bf0"><path d="M 90.195312 59.132812 L 288.167969 130.203125 L 206.257812 358.363281 L 8.285156 287.292969 Z M 90.195312 59.132812 " clip-rule="nonzero"/></clipPath></defs><g clip-path="url(#d46380f3d7)"><path fill="#ffffff" d="M 0 0.246094 L 296.121094 0.246094 L 296.121094 417.203125 L 0 417.203125 Z M 0 0.246094 " fill-opacity="1" fill-rule="nonzero"/><path fill="#ffd2e7" d="M 0 0.246094 L 296.121094 0.246094 L 296.121094 417.203125 L 0 417.203125 Z M 0 0.246094 " fill-opacity="1" fill-rule="nonzero"/></g><g clip-path="url(#5366549a6e)"><g clip-path="url(#5df8815416)"><g clip-path="url(#94907c513b)"><g clip-path="url(#30fe43f602)"><path fill="#005500" d="M 198.949219 106.484375 C 148.40625 80.183594 146.550781 121.925781 114.4375 146.773438 C 160.8125 154.371094 177.054688 124.175781 198.949219 106.484375 Z M 198.949219 106.484375 " fill-opacity="1" fill-rule="nonzero"/></g></g></g></g><g clip-path="url(#54132d5d2f)"><g clip-path="url(#0a274d8290)"><g clip-path="url(#d3b68e1c74)"><g clip-path="url(#277528f615)"><path stroke-linecap="butt" transform="matrix(2.500013, 0.897526, -0.89475, 2.492281, -10890.475462, -2966.372769)" fill="none" stroke-linejoin="miter" d="M 4320.199559 -322.85005 C 4298.945046 -325.748723 4303.597508 -310.675592 4295.379629 -297.746307 C 4312.778135 -300.96342 4314.692157 -313.768233 4320.199559 -322.85005 Z M 4320.199559 -322.85005 " stroke="#000000" stroke-width="0.754" stroke-opacity="1" stroke-miterlimit="4"/></g></g></g></g><g clip-path="url(#260e40a92d)"><g clip-path="url(#04ee5b3a8c)"><g clip-path="url(#a680b940da)"><g clip-path="url(#1a783003e1)"><path fill="#000000" d="M 98.507812 216.003906 C 139.503906 182.941406 168.558594 164.621094 198.671875 106.492188 C 199.632812 104.644531 206.1875 105.089844 206.0625 108.054688 C 213.429688 177.769531 199.371094 205.625 181.769531 262.671875 L 174.972656 261.089844 C 198.1875 209.5 210.691406 150.242188 202.730469 114.417969 C 202.121094 111.679688 199.375 110.578125 197.757812 113.722656 C 177.597656 158.332031 139.921875 188.871094 103.945312 219.871094 Z M 98.507812 216.003906 " fill-opacity="1" fill-rule="nonzero"/></g></g></g></g><g clip-path="url(#dfa1ab5ec4)"><g clip-path="url(#7619bd71de)"><g clip-path="url(#d98d1b2f93)"><g clip-path="url(#e2990e20c7)"><path fill="#d40000" d="M 120.582031 271.628906 C 103.046875 295.210938 71.636719 301.339844 50.421875 285.324219 C 29.210938 269.304688 26.230469 237.203125 43.765625 213.621094 C 61.300781 190.039062 85.453125 185.605469 103.664062 213.722656 C 129.460938 221.78125 143.445312 240.878906 120.582031 271.628906 Z M 120.582031 271.628906 " fill-opacity="1" fill-rule="nonzero"/></g></g></g></g><g clip-path="url(#bbfdb74551)"><g clip-path="url(#17b2216f46)"><g clip-path="url(#970943cbfc)"><g clip-path="url(#b38b46ed66)"><path fill="#aa0000" d="M 223.945312 295.429688 C 218.273438 324.757812 192.175781 344.359375 165.652344 339.207031 C 139.128906 334.054688 122.222656 306.101562 127.894531 276.769531 C 133.5625 247.4375 153.753906 232.621094 182.867188 250.148438 C 210.078125 245.996094 231.335938 257.179688 223.941406 295.429688 Z M 223.945312 295.429688 " fill-opacity="1" fill-rule="nonzero"/></g></g></g></g><g clip-path="url(#b1e76b75aa)"><g clip-path="url(#c5bf91a17a)"><g clip-path="url(#9494ca2d15)"><g clip-path="url(#6052e08c2a)"><path fill="#ffffff" d="M 75 211.523438 C 74.785156 211.964844 74.535156 212.382812 74.25 212.78125 C 73.960938 213.179688 73.648438 213.546875 73.300781 213.882812 C 72.957031 214.21875 72.589844 214.519531 72.195312 214.785156 C 71.804688 215.050781 71.398438 215.273438 70.976562 215.453125 C 70.550781 215.632812 70.121094 215.769531 69.683594 215.863281 C 69.246094 215.953125 68.808594 215.996094 68.375 215.992188 C 67.9375 215.992188 67.511719 215.941406 67.09375 215.84375 C 66.679688 215.75 66.277344 215.609375 65.894531 215.421875 C 65.515625 215.234375 65.15625 215.007812 64.824219 214.738281 C 64.488281 214.472656 64.1875 214.167969 63.917969 213.824219 C 63.648438 213.484375 63.410156 213.113281 63.214844 212.714844 C 63.015625 212.3125 62.855469 211.890625 62.738281 211.445312 C 62.621094 211.003906 62.546875 210.542969 62.511719 210.074219 C 62.480469 209.601562 62.488281 209.128906 62.542969 208.648438 C 62.59375 208.167969 62.6875 207.695312 62.824219 207.222656 C 62.960938 206.753906 63.136719 206.296875 63.355469 205.855469 C 63.570312 205.414062 63.820312 204.992188 64.105469 204.597656 C 64.390625 204.199219 64.707031 203.832031 65.054688 203.496094 C 65.398438 203.15625 65.765625 202.855469 66.160156 202.59375 C 66.550781 202.328125 66.957031 202.105469 67.378906 201.925781 C 67.800781 201.742188 68.234375 201.609375 68.671875 201.515625 C 69.109375 201.425781 69.542969 201.382812 69.980469 201.382812 C 70.417969 201.386719 70.84375 201.4375 71.257812 201.53125 C 71.675781 201.628906 72.078125 201.769531 72.457031 201.957031 C 72.839844 202.140625 73.199219 202.371094 73.53125 202.636719 C 73.863281 202.90625 74.167969 203.210938 74.4375 203.550781 C 74.707031 203.894531 74.941406 204.265625 75.140625 204.664062 C 75.339844 205.066406 75.496094 205.488281 75.617188 205.929688 C 75.734375 206.375 75.808594 206.832031 75.84375 207.304688 C 75.875 207.773438 75.867188 208.25 75.8125 208.730469 C 75.761719 209.210938 75.664062 209.683594 75.527344 210.152344 C 75.390625 210.625 75.214844 211.082031 75 211.523438 Z M 75 211.523438 " fill-opacity="1" fill-rule="nonzero"/></g></g></g></g><g clip-path="url(#920df66ecf)"><g clip-path="url(#0f8fbd7428)"><g clip-path="url(#b3bbc0b6ef)"><g clip-path="url(#cf7e393bf0)"><path fill="#ffffff" d="M 162.503906 269.707031 C 162.117188 270.5 161.667969 271.25 161.15625 271.964844 C 160.644531 272.675781 160.078125 273.335938 159.457031 273.9375 C 158.839844 274.542969 158.179688 275.082031 157.476562 275.554688 C 156.773438 276.03125 156.042969 276.429688 155.285156 276.753906 C 154.527344 277.078125 153.757812 277.324219 152.972656 277.484375 C 152.1875 277.648438 151.40625 277.726562 150.625 277.722656 C 149.84375 277.71875 149.078125 277.628906 148.328125 277.457031 C 147.582031 277.285156 146.863281 277.03125 146.179688 276.695312 C 145.492188 276.363281 144.851562 275.957031 144.253906 275.472656 C 143.660156 274.992188 143.117188 274.445312 142.632812 273.832031 C 142.144531 273.222656 141.726562 272.558594 141.371094 271.839844 C 141.015625 271.121094 140.730469 270.363281 140.519531 269.570312 C 140.308594 268.773438 140.171875 267.953125 140.113281 267.105469 C 140.054688 266.261719 140.070312 265.410156 140.164062 264.550781 C 140.257812 263.691406 140.429688 262.839844 140.675781 261.996094 C 140.921875 261.152344 141.234375 260.335938 141.621094 259.542969 C 142.007812 258.75 142.457031 258 142.972656 257.285156 C 143.484375 256.574219 144.050781 255.914062 144.667969 255.3125 C 145.289062 254.707031 145.949219 254.167969 146.652344 253.691406 C 147.351562 253.21875 148.082031 252.820312 148.839844 252.496094 C 149.597656 252.171875 150.371094 251.925781 151.15625 251.765625 C 151.941406 251.601562 152.722656 251.523438 153.503906 251.527344 C 154.285156 251.53125 155.050781 251.621094 155.796875 251.792969 C 156.546875 251.964844 157.261719 252.21875 157.949219 252.550781 C 158.632812 252.886719 159.273438 253.292969 159.871094 253.777344 C 160.46875 254.257812 161.011719 254.804688 161.496094 255.414062 C 161.980469 256.027344 162.402344 256.691406 162.757812 257.410156 C 163.113281 258.128906 163.394531 258.886719 163.609375 259.679688 C 163.820312 260.476562 163.953125 261.296875 164.015625 262.140625 C 164.074219 262.988281 164.058594 263.839844 163.960938 264.699219 C 163.867188 265.558594 163.699219 266.410156 163.453125 267.253906 C 163.207031 268.09375 162.890625 268.914062 162.503906 269.707031 Z M 162.503906 269.707031 " fill-opacity="1" fill-rule="nonzero"/></g></g></g></g></svg>