<svg xmlns="http://www.w3.org/2000/svg" xmlns:xlink="http://www.w3.org/1999/xlink" width="396" zoomAndPan="magnify" viewBox="0 0 297.12 419.249996" height="559" preserveAspectRatio="xMidYMid meet" version="1.0"><defs><clipPath id="e48db277e2"><path d="M 0 0.246094 L 296.121094 0.246094 L 296.121094 417.203125 L 0 417.203125 Z M 0 0.246094 " clip-rule="nonzero"/></clipPath><clipPath id="89e992a4a3"><path d="M 106 234 L 196 234 L 196 324.136719 L 106 324.136719 Z M 106 234 " clip-rule="nonzero"/></clipPath><clipPath id="d05d1504e5"><path d="M 170 234 L 259.734375 234 L 259.734375 324.136719 L 170 324.136719 Z M 170 234 " clip-rule="nonzero"/></clipPath></defs><g clip-path="url(#e48db277e2)"><path fill="#ffffff" d="M 0 0.246094 L 296.121094 0.246094 L 296.121094 417.203125 L 0 417.203125 Z M 0 0.246094 " fill-opacity="1" fill-rule="nonzero"/><path fill="#ffd2e7" d="M 0 0.246094 L 296.121094 0.246094 L 296.121094 417.203125 L 0 417.203125 Z M 0 0.246094 " fill-opacity="1" fill-rule="nonzero"/></g><path fill="#77b255" d="M 93.980469 170.90625 C 93.027344 170.90625 92.050781 170.6875 91.140625 170.230469 C 63.222656 156.246094 43.4375 122.179688 36.953125 102.691406 C 35.832031 99.347656 37.640625 95.734375 40.980469 94.617188 C 44.328125 93.492188 47.9375 95.3125 49.046875 98.652344 C 54.636719 115.457031 72.550781 146.644531 96.84375 158.808594 C 99.992188 160.382812 101.269531 164.222656 99.691406 167.375 C 98.570312 169.617188 96.320312 170.90625 93.980469 170.90625 Z M 93.980469 170.90625 " fill-opacity="1" fill-rule="nonzero"/><g clip-path="url(#89e992a4a3)"><path fill="#553788" d="M 195.972656 279.445312 C 195.972656 280.90625 195.902344 282.367188 195.757812 283.824219 C 195.613281 285.28125 195.402344 286.726562 195.117188 288.164062 C 194.832031 289.597656 194.476562 291.015625 194.050781 292.417969 C 193.628906 293.816406 193.136719 295.195312 192.578125 296.546875 C 192.015625 297.898438 191.394531 299.21875 190.703125 300.511719 C 190.015625 301.800781 189.265625 303.054688 188.453125 304.273438 C 187.640625 305.492188 186.773438 306.664062 185.84375 307.796875 C 184.917969 308.925781 183.9375 310.011719 182.90625 311.046875 C 181.871094 312.082031 180.789062 313.0625 179.660156 313.992188 C 178.53125 314.917969 177.359375 315.789062 176.144531 316.605469 C 174.929688 317.417969 173.675781 318.167969 172.386719 318.859375 C 171.097656 319.546875 169.78125 320.175781 168.429688 320.734375 C 167.078125 321.292969 165.703125 321.785156 164.304688 322.210938 C 162.910156 322.636719 161.492188 322.992188 160.058594 323.277344 C 158.625 323.5625 157.183594 323.777344 155.726562 323.921875 C 154.273438 324.0625 152.816406 324.136719 151.355469 324.136719 C 149.894531 324.136719 148.4375 324.0625 146.980469 323.921875 C 145.527344 323.777344 144.082031 323.5625 142.648438 323.277344 C 141.21875 322.992188 139.800781 322.636719 138.402344 322.210938 C 137.003906 321.785156 135.628906 321.292969 134.28125 320.734375 C 132.929688 320.175781 131.609375 319.546875 130.320312 318.859375 C 129.03125 318.167969 127.78125 317.417969 126.566406 316.605469 C 125.351562 315.789062 124.179688 314.917969 123.050781 313.992188 C 121.917969 313.0625 120.839844 312.082031 119.804688 311.046875 C 118.773438 310.011719 117.792969 308.925781 116.863281 307.796875 C 115.9375 306.664062 115.066406 305.492188 114.257812 304.273438 C 113.445312 303.054688 112.695312 301.800781 112.003906 300.511719 C 111.316406 299.21875 110.691406 297.898438 110.132812 296.546875 C 109.574219 295.195312 109.082031 293.816406 108.65625 292.417969 C 108.234375 291.015625 107.878906 289.597656 107.59375 288.164062 C 107.308594 286.726562 107.09375 285.28125 106.953125 283.824219 C 106.808594 282.367188 106.738281 280.90625 106.738281 279.445312 C 106.738281 277.980469 106.808594 276.519531 106.953125 275.0625 C 107.09375 273.605469 107.308594 272.160156 107.59375 270.726562 C 107.878906 269.289062 108.234375 267.871094 108.65625 266.46875 C 109.082031 265.070312 109.574219 263.691406 110.132812 262.339844 C 110.691406 260.988281 111.316406 259.667969 112.003906 258.375 C 112.695312 257.085938 113.445312 255.832031 114.257812 254.613281 C 115.066406 253.398438 115.9375 252.222656 116.863281 251.089844 C 117.792969 249.960938 118.773438 248.875 119.804688 247.839844 C 120.839844 246.808594 121.917969 245.824219 123.050781 244.894531 C 124.179688 243.96875 125.351562 243.097656 126.566406 242.285156 C 127.78125 241.46875 129.03125 240.71875 130.320312 240.027344 C 131.609375 239.339844 132.929688 238.714844 134.28125 238.152344 C 135.628906 237.59375 137.003906 237.101562 138.402344 236.675781 C 139.800781 236.25 141.21875 235.894531 142.648438 235.609375 C 144.082031 235.324219 145.527344 235.109375 146.980469 234.96875 C 148.4375 234.824219 149.894531 234.75 151.355469 234.75 C 152.816406 234.75 154.273438 234.824219 155.726562 234.96875 C 157.183594 235.109375 158.625 235.324219 160.058594 235.609375 C 161.492188 235.894531 162.910156 236.25 164.304688 236.675781 C 165.703125 237.101562 167.078125 237.59375 168.429688 238.152344 C 169.78125 238.714844 171.097656 239.339844 172.386719 240.027344 C 173.675781 240.71875 174.929688 241.46875 176.144531 242.285156 C 177.359375 243.097656 178.53125 243.96875 179.660156 244.894531 C 180.789062 245.824219 181.871094 246.808594 182.90625 247.839844 C 183.9375 248.875 184.917969 249.960938 185.84375 251.089844 C 186.773438 252.222656 187.640625 253.398438 188.453125 254.613281 C 189.265625 255.832031 190.015625 257.085938 190.703125 258.375 C 191.394531 259.667969 192.015625 260.988281 192.578125 262.339844 C 193.136719 263.691406 193.628906 265.070312 194.050781 266.46875 C 194.476562 267.871094 194.832031 269.289062 195.117188 270.726562 C 195.402344 272.160156 195.613281 273.605469 195.757812 275.0625 C 195.902344 276.519531 195.972656 277.980469 195.972656 279.445312 Z M 195.972656 279.445312 " fill-opacity="1" fill-rule="nonzero"/></g><path fill="#9266cc" d="M 138.605469 190.058594 C 138.605469 191.523438 138.535156 192.984375 138.390625 194.441406 C 138.25 195.898438 138.035156 197.34375 137.75 198.777344 C 137.464844 200.214844 137.109375 201.632812 136.683594 203.03125 C 136.261719 204.433594 135.769531 205.808594 135.210938 207.164062 C 134.652344 208.515625 134.027344 209.835938 133.339844 211.128906 C 132.648438 212.417969 131.898438 213.671875 131.085938 214.890625 C 130.273438 216.105469 129.40625 217.28125 128.480469 218.410156 C 127.550781 219.542969 126.570312 220.625 125.539062 221.660156 C 124.503906 222.695312 123.421875 223.679688 122.292969 224.605469 C 121.164062 225.535156 119.992188 226.40625 118.777344 227.21875 C 117.5625 228.03125 116.308594 228.785156 115.019531 229.472656 C 113.734375 230.164062 112.414062 230.789062 111.0625 231.351562 C 109.714844 231.910156 108.339844 232.402344 106.941406 232.828125 C 105.542969 233.253906 104.125 233.609375 102.691406 233.894531 C 101.261719 234.179688 99.816406 234.394531 98.363281 234.535156 C 96.90625 234.679688 95.449219 234.75 93.988281 234.75 C 92.527344 234.75 91.070312 234.679688 89.613281 234.535156 C 88.160156 234.394531 86.71875 234.179688 85.285156 233.894531 C 83.851562 233.609375 82.433594 233.253906 81.035156 232.828125 C 79.636719 232.402344 78.265625 231.910156 76.914062 231.351562 C 75.5625 230.789062 74.246094 230.164062 72.957031 229.472656 C 71.667969 228.785156 70.414062 228.03125 69.199219 227.21875 C 67.984375 226.40625 66.8125 225.535156 65.683594 224.605469 C 64.554688 223.679688 63.472656 222.695312 62.4375 221.660156 C 61.40625 220.625 60.425781 219.542969 59.5 218.410156 C 58.570312 217.28125 57.703125 216.105469 56.890625 214.890625 C 56.078125 213.671875 55.328125 212.417969 54.640625 211.128906 C 53.949219 209.835938 53.324219 208.515625 52.765625 207.164062 C 52.207031 205.808594 51.714844 204.433594 51.292969 203.03125 C 50.867188 201.632812 50.511719 200.214844 50.226562 198.777344 C 49.941406 197.34375 49.726562 195.898438 49.585938 194.441406 C 49.441406 192.984375 49.371094 191.523438 49.371094 190.058594 C 49.371094 188.597656 49.441406 187.136719 49.585938 185.679688 C 49.726562 184.222656 49.941406 182.777344 50.226562 181.339844 C 50.511719 179.90625 50.867188 178.488281 51.292969 177.085938 C 51.714844 175.683594 52.207031 174.308594 52.765625 172.957031 C 53.324219 171.605469 53.949219 170.28125 54.640625 168.992188 C 55.328125 167.699219 56.078125 166.445312 56.890625 165.230469 C 57.703125 164.011719 58.570312 162.839844 59.5 161.707031 C 60.425781 160.574219 61.40625 159.492188 62.4375 158.457031 C 63.472656 157.421875 64.554688 156.441406 65.683594 155.511719 C 66.8125 154.582031 67.984375 153.710938 69.199219 152.898438 C 70.414062 152.085938 71.667969 151.335938 72.957031 150.644531 C 74.246094 149.953125 75.5625 149.328125 76.914062 148.769531 C 78.265625 148.210938 79.636719 147.71875 81.035156 147.292969 C 82.433594 146.867188 83.851562 146.511719 85.285156 146.226562 C 86.71875 145.941406 88.160156 145.726562 89.613281 145.582031 C 91.070312 145.4375 92.527344 145.367188 93.988281 145.367188 C 95.449219 145.367188 96.90625 145.4375 98.363281 145.582031 C 99.816406 145.726562 101.261719 145.941406 102.691406 146.226562 C 104.125 146.511719 105.542969 146.867188 106.941406 147.292969 C 108.339844 147.71875 109.714844 148.210938 111.0625 148.769531 C 112.414062 149.328125 113.734375 149.953125 115.019531 150.644531 C 116.308594 151.335938 117.5625 152.085938 118.777344 152.898438 C 119.992188 153.710938 121.164062 154.582031 122.292969 155.511719 C 123.421875 156.441406 124.503906 157.421875 125.539062 158.457031 C 126.570312 159.492188 127.550781 160.574219 128.480469 161.707031 C 129.40625 162.839844 130.273438 164.011719 131.085938 165.230469 C 131.898438 166.445312 132.648438 167.699219 133.339844 168.992188 C 134.027344 170.28125 134.652344 171.605469 135.210938 172.957031 C 135.769531 174.308594 136.261719 175.683594 136.683594 177.085938 C 137.109375 178.488281 137.464844 179.90625 137.75 181.339844 C 138.035156 182.777344 138.25 184.222656 138.390625 185.679688 C 138.535156 187.136719 138.605469 188.597656 138.605469 190.058594 Z M 138.605469 190.058594 " fill-opacity="1" fill-rule="nonzero"/><path fill="#aa8dd8" d="M 195.972656 170.90625 C 195.972656 172.371094 195.902344 173.828125 195.757812 175.285156 C 195.613281 176.742188 195.402344 178.1875 195.117188 179.625 C 194.832031 181.058594 194.476562 182.480469 194.050781 183.878906 C 193.628906 185.28125 193.136719 186.65625 192.578125 188.007812 C 192.015625 189.359375 191.394531 190.683594 190.703125 191.972656 C 190.015625 193.265625 189.265625 194.519531 188.453125 195.734375 C 187.640625 196.953125 186.773438 198.125 185.84375 199.257812 C 184.917969 200.390625 183.9375 201.472656 182.90625 202.507812 C 181.871094 203.542969 180.789062 204.523438 179.660156 205.453125 C 178.53125 206.382812 177.359375 207.253906 176.144531 208.066406 C 174.929688 208.878906 173.675781 209.628906 172.386719 210.320312 C 171.097656 211.011719 169.78125 211.636719 168.429688 212.195312 C 167.078125 212.757812 165.703125 213.25 164.304688 213.671875 C 162.910156 214.097656 161.492188 214.453125 160.058594 214.738281 C 158.625 215.023438 157.183594 215.238281 155.726562 215.382812 C 154.273438 215.527344 152.816406 215.597656 151.355469 215.597656 C 149.894531 215.597656 148.4375 215.527344 146.980469 215.382812 C 145.527344 215.238281 144.082031 215.023438 142.648438 214.738281 C 141.21875 214.453125 139.800781 214.097656 138.402344 213.671875 C 137.003906 213.25 135.628906 212.757812 134.28125 212.195312 C 132.929688 211.636719 131.609375 211.011719 130.320312 210.320312 C 129.03125 209.628906 127.78125 208.878906 126.566406 208.066406 C 125.351562 207.253906 124.179688 206.382812 123.050781 205.453125 C 121.917969 204.523438 120.839844 203.542969 119.804688 202.507812 C 118.773438 201.472656 117.792969 200.390625 116.863281 199.257812 C 115.9375 198.125 115.066406 196.953125 114.257812 195.734375 C 113.445312 194.519531 112.695312 193.265625 112.003906 191.972656 C 111.316406 190.683594 110.691406 189.359375 110.132812 188.007812 C 109.574219 186.65625 109.082031 185.28125 108.65625 183.878906 C 108.234375 182.480469 107.878906 181.058594 107.59375 179.625 C 107.308594 178.1875 107.09375 176.742188 106.953125 175.285156 C 106.808594 173.828125 106.738281 172.371094 106.738281 170.90625 C 106.738281 169.441406 106.808594 167.980469 106.953125 166.523438 C 107.09375 165.070312 107.308594 163.621094 107.59375 162.1875 C 107.878906 160.75 108.234375 159.332031 108.65625 157.933594 C 109.082031 156.53125 109.574219 155.15625 110.132812 153.804688 C 110.691406 152.449219 111.316406 151.128906 112.003906 149.839844 C 112.695312 148.546875 113.445312 147.292969 114.257812 146.078125 C 115.066406 144.859375 115.9375 143.683594 116.863281 142.554688 C 117.792969 141.421875 118.773438 140.339844 119.804688 139.304688 C 120.839844 138.269531 121.917969 137.285156 123.050781 136.359375 C 124.179688 135.429688 125.351562 134.558594 126.566406 133.746094 C 127.78125 132.933594 129.03125 132.179688 130.320312 131.492188 C 131.609375 130.800781 132.929688 130.175781 134.28125 129.617188 C 135.628906 129.054688 137.003906 128.5625 138.402344 128.136719 C 139.800781 127.714844 141.21875 127.359375 142.648438 127.074219 C 144.082031 126.785156 145.527344 126.574219 146.980469 126.429688 C 148.4375 126.285156 149.894531 126.214844 151.355469 126.214844 C 152.816406 126.214844 154.273438 126.285156 155.726562 126.429688 C 157.183594 126.574219 158.625 126.785156 160.058594 127.074219 C 161.492188 127.359375 162.910156 127.714844 164.304688 128.136719 C 165.703125 128.5625 167.078125 129.054688 168.429688 129.617188 C 169.78125 130.175781 171.097656 130.800781 172.386719 131.492188 C 173.675781 132.179688 174.929688 132.933594 176.144531 133.746094 C 177.359375 134.558594 178.53125 135.429688 179.660156 136.359375 C 180.789062 137.285156 181.871094 138.269531 182.90625 139.304688 C 183.9375 140.339844 184.917969 141.421875 185.84375 142.554688 C 186.773438 143.683594 187.640625 144.859375 188.453125 146.078125 C 189.265625 147.292969 190.015625 148.546875 190.703125 149.839844 C 191.394531 151.128906 192.015625 152.449219 192.578125 153.804688 C 193.136719 155.15625 193.628906 156.53125 194.050781 157.933594 C 194.476562 159.332031 194.832031 160.75 195.117188 162.1875 C 195.402344 163.621094 195.613281 165.070312 195.757812 166.523438 C 195.902344 167.980469 195.972656 169.441406 195.972656 170.90625 Z M 195.972656 170.90625 " fill-opacity="1" fill-rule="nonzero"/><path fill="#744eaa" d="M 246.964844 209.214844 C 246.964844 210.675781 246.894531 212.136719 246.75 213.59375 C 246.605469 215.050781 246.394531 216.496094 246.109375 217.933594 C 245.824219 219.367188 245.46875 220.785156 245.042969 222.1875 C 244.621094 223.585938 244.128906 224.964844 243.570312 226.316406 C 243.007812 227.667969 242.386719 228.988281 241.695312 230.28125 C 241.007812 231.570312 240.257812 232.824219 239.445312 234.042969 C 238.632812 235.261719 237.765625 236.433594 236.835938 237.566406 C 235.910156 238.695312 234.929688 239.78125 233.898438 240.816406 C 232.863281 241.851562 231.78125 242.832031 230.652344 243.761719 C 229.523438 244.6875 228.351562 245.558594 227.136719 246.375 C 225.921875 247.1875 224.667969 247.9375 223.378906 248.628906 C 222.089844 249.316406 220.769531 249.945312 219.421875 250.503906 C 218.070312 251.0625 216.695312 251.554688 215.296875 251.980469 C 213.898438 252.40625 212.484375 252.761719 211.050781 253.046875 C 209.617188 253.332031 208.175781 253.546875 206.71875 253.691406 C 205.265625 253.832031 203.808594 253.90625 202.347656 253.90625 C 200.886719 253.90625 199.429688 253.832031 197.972656 253.691406 C 196.519531 253.546875 195.074219 253.332031 193.640625 253.046875 C 192.210938 252.761719 190.792969 252.40625 189.394531 251.980469 C 187.996094 251.554688 186.621094 251.0625 185.273438 250.503906 C 183.921875 249.945312 182.601562 249.316406 181.3125 248.628906 C 180.023438 247.9375 178.773438 247.1875 177.558594 246.375 C 176.34375 245.558594 175.171875 244.6875 174.042969 243.761719 C 172.910156 242.832031 171.832031 241.851562 170.796875 240.816406 C 169.765625 239.78125 168.785156 238.695312 167.855469 237.566406 C 166.929688 236.433594 166.058594 235.261719 165.25 234.042969 C 164.4375 232.824219 163.6875 231.570312 162.996094 230.28125 C 162.308594 228.988281 161.683594 227.667969 161.125 226.316406 C 160.566406 224.964844 160.074219 223.585938 159.648438 222.1875 C 159.226562 220.785156 158.871094 219.367188 158.585938 217.933594 C 158.300781 216.496094 158.085938 215.050781 157.945312 213.59375 C 157.800781 212.136719 157.730469 210.675781 157.730469 209.214844 C 157.730469 207.75 157.800781 206.289062 157.945312 204.832031 C 158.085938 203.375 158.300781 201.929688 158.585938 200.496094 C 158.871094 199.058594 159.226562 197.640625 159.648438 196.238281 C 160.074219 194.839844 160.566406 193.460938 161.125 192.109375 C 161.683594 190.757812 162.308594 189.4375 162.996094 188.144531 C 163.6875 186.855469 164.4375 185.601562 165.25 184.382812 C 166.058594 183.167969 166.929688 181.992188 167.855469 180.859375 C 168.785156 179.730469 169.765625 178.644531 170.796875 177.609375 C 171.832031 176.578125 172.910156 175.59375 174.042969 174.664062 C 175.171875 173.738281 176.34375 172.867188 177.558594 172.054688 C 178.773438 171.238281 180.023438 170.488281 181.3125 169.796875 C 182.601562 169.109375 183.921875 168.484375 185.273438 167.921875 C 186.621094 167.363281 187.996094 166.871094 189.394531 166.445312 C 190.792969 166.019531 192.210938 165.664062 193.640625 165.378906 C 195.074219 165.09375 196.519531 164.878906 197.972656 164.738281 C 199.429688 164.59375 200.886719 164.519531 202.347656 164.519531 C 203.808594 164.519531 205.265625 164.59375 206.71875 164.738281 C 208.175781 164.878906 209.617188 165.09375 211.050781 165.378906 C 212.484375 165.664062 213.898438 166.019531 215.296875 166.445312 C 216.695312 166.871094 218.070312 167.363281 219.421875 167.921875 C 220.769531 168.484375 222.089844 169.109375 223.378906 169.796875 C 224.667969 170.488281 225.921875 171.238281 227.136719 172.054688 C 228.351562 172.867188 229.523438 173.738281 230.652344 174.664062 C 231.78125 175.59375 232.863281 176.578125 233.898438 177.609375 C 234.929688 178.644531 235.910156 179.730469 236.835938 180.859375 C 237.765625 181.992188 238.632812 183.167969 239.445312 184.382812 C 240.257812 185.601562 241.007812 186.855469 241.695312 188.144531 C 242.386719 189.4375 243.007812 190.757812 243.570312 192.109375 C 244.128906 193.460938 244.621094 194.839844 245.042969 196.238281 C 245.46875 197.640625 245.824219 199.058594 246.109375 200.496094 C 246.394531 201.929688 246.605469 203.375 246.75 204.832031 C 246.894531 206.289062 246.964844 207.75 246.964844 209.214844 Z M 246.964844 209.214844 " fill-opacity="1" fill-rule="nonzero"/><path fill="#744eaa" d="M 132.234375 260.289062 C 132.234375 261.753906 132.160156 263.214844 132.019531 264.671875 C 131.875 266.128906 131.660156 267.574219 131.375 269.007812 C 131.089844 270.445312 130.734375 271.863281 130.3125 273.261719 C 129.886719 274.664062 129.394531 276.039062 128.835938 277.394531 C 128.277344 278.746094 127.652344 280.066406 126.964844 281.359375 C 126.273438 282.648438 125.523438 283.902344 124.714844 285.121094 C 123.902344 286.335938 123.03125 287.511719 122.105469 288.640625 C 121.175781 289.773438 120.199219 290.855469 119.164062 291.890625 C 118.132812 292.925781 117.050781 293.910156 115.917969 294.835938 C 114.789062 295.765625 113.617188 296.636719 112.402344 297.449219 C 111.1875 298.261719 109.9375 299.015625 108.648438 299.703125 C 107.359375 300.394531 106.039062 301.019531 104.6875 301.582031 C 103.339844 302.140625 101.964844 302.632812 100.566406 303.058594 C 99.167969 303.484375 97.753906 303.839844 96.320312 304.125 C 94.886719 304.410156 93.441406 304.625 91.988281 304.765625 C 90.535156 304.910156 89.074219 304.980469 87.613281 304.980469 C 86.152344 304.980469 84.695312 304.910156 83.242188 304.765625 C 81.785156 304.625 80.34375 304.410156 78.910156 304.125 C 77.476562 303.839844 76.0625 303.484375 74.664062 303.058594 C 73.265625 302.632812 71.890625 302.140625 70.539062 301.582031 C 69.191406 301.019531 67.871094 300.394531 66.582031 299.703125 C 65.292969 299.015625 64.039062 298.261719 62.824219 297.449219 C 61.609375 296.636719 60.4375 295.765625 59.308594 294.835938 C 58.179688 293.910156 57.097656 292.925781 56.066406 291.890625 C 55.03125 290.855469 54.050781 289.773438 53.125 288.640625 C 52.195312 287.511719 51.328125 286.335938 50.515625 285.121094 C 49.703125 283.902344 48.953125 282.648438 48.265625 281.359375 C 47.574219 280.066406 46.953125 278.746094 46.394531 277.394531 C 45.832031 276.039062 45.339844 274.664062 44.917969 273.261719 C 44.492188 271.863281 44.140625 270.445312 43.855469 269.007812 C 43.570312 267.574219 43.355469 266.128906 43.210938 264.671875 C 43.066406 263.214844 42.996094 261.753906 42.996094 260.289062 C 42.996094 258.828125 43.066406 257.367188 43.210938 255.910156 C 43.355469 254.453125 43.570312 253.007812 43.855469 251.570312 C 44.140625 250.136719 44.492188 248.71875 44.917969 247.316406 C 45.339844 245.914062 45.832031 244.539062 46.394531 243.1875 C 46.953125 241.835938 47.574219 240.511719 48.265625 239.222656 C 48.953125 237.929688 49.703125 236.675781 50.515625 235.460938 C 51.328125 234.242188 52.195312 233.070312 53.125 231.9375 C 54.050781 230.804688 55.03125 229.722656 56.066406 228.6875 C 57.097656 227.652344 58.179688 226.671875 59.308594 225.742188 C 60.4375 224.8125 61.609375 223.941406 62.824219 223.128906 C 64.039062 222.316406 65.292969 221.566406 66.582031 220.875 C 67.871094 220.183594 69.191406 219.558594 70.539062 219 C 71.890625 218.441406 73.265625 217.949219 74.664062 217.523438 C 76.0625 217.097656 77.476562 216.742188 78.910156 216.457031 C 80.34375 216.171875 81.785156 215.957031 83.242188 215.8125 C 84.695312 215.667969 86.152344 215.597656 87.613281 215.597656 C 89.074219 215.597656 90.535156 215.667969 91.988281 215.8125 C 93.441406 215.957031 94.886719 216.171875 96.320312 216.457031 C 97.753906 216.742188 99.167969 217.097656 100.566406 217.523438 C 101.964844 217.949219 103.339844 218.441406 104.6875 219 C 106.039062 219.558594 107.359375 220.183594 108.648438 220.875 C 109.9375 221.566406 111.1875 222.316406 112.402344 223.128906 C 113.617188 223.941406 114.789062 224.8125 115.917969 225.742188 C 117.050781 226.671875 118.132812 227.652344 119.164062 228.6875 C 120.199219 229.722656 121.175781 230.804688 122.105469 231.9375 C 123.03125 233.070312 123.902344 234.242188 124.714844 235.460938 C 125.523438 236.675781 126.273438 237.929688 126.964844 239.222656 C 127.652344 240.511719 128.277344 241.835938 128.835938 243.1875 C 129.394531 244.539062 129.886719 245.914062 130.3125 247.316406 C 130.734375 248.71875 131.089844 250.136719 131.375 251.570312 C 131.660156 253.007812 131.875 254.453125 132.019531 255.910156 C 132.160156 257.367188 132.234375 258.828125 132.234375 260.289062 Z M 132.234375 260.289062 " fill-opacity="1" fill-rule="nonzero"/><path fill="#9266cc" d="M 189.597656 228.367188 C 189.597656 229.832031 189.527344 231.292969 189.382812 232.746094 C 189.242188 234.203125 189.027344 235.652344 188.742188 237.085938 C 188.457031 238.523438 188.101562 239.941406 187.675781 241.339844 C 187.253906 242.742188 186.761719 244.117188 186.203125 245.46875 C 185.644531 246.824219 185.019531 248.144531 184.332031 249.433594 C 183.640625 250.726562 182.890625 251.980469 182.078125 253.195312 C 181.265625 254.414062 180.398438 255.589844 179.472656 256.71875 C 178.542969 257.851562 177.5625 258.933594 176.53125 259.96875 C 175.496094 261.003906 174.414062 261.984375 173.285156 262.914062 C 172.15625 263.84375 170.984375 264.714844 169.769531 265.527344 C 168.554688 266.339844 167.300781 267.09375 166.011719 267.78125 C 164.726562 268.472656 163.40625 269.097656 162.054688 269.65625 C 160.707031 270.21875 159.332031 270.710938 157.933594 271.136719 C 156.535156 271.558594 155.117188 271.914062 153.683594 272.199219 C 152.253906 272.484375 150.808594 272.699219 149.355469 272.84375 C 147.898438 272.988281 146.441406 273.058594 144.980469 273.058594 C 143.519531 273.058594 142.0625 272.988281 140.605469 272.84375 C 139.152344 272.699219 137.710938 272.484375 136.277344 272.199219 C 134.84375 271.914062 133.425781 271.558594 132.027344 271.136719 C 130.628906 270.710938 129.257812 270.21875 127.90625 269.65625 C 126.554688 269.097656 125.238281 268.472656 123.949219 267.78125 C 122.660156 267.09375 121.40625 266.339844 120.191406 265.527344 C 118.976562 264.714844 117.804688 263.84375 116.675781 262.914062 C 115.546875 261.984375 114.464844 261.003906 113.429688 259.96875 C 112.398438 258.933594 111.417969 257.851562 110.492188 256.71875 C 109.5625 255.589844 108.695312 254.414062 107.882812 253.195312 C 107.070312 251.980469 106.320312 250.726562 105.632812 249.433594 C 104.941406 248.144531 104.316406 246.824219 103.757812 245.46875 C 103.199219 244.117188 102.707031 242.742188 102.285156 241.339844 C 101.859375 239.941406 101.503906 238.523438 101.21875 237.085938 C 100.933594 235.652344 100.71875 234.203125 100.578125 232.746094 C 100.433594 231.292969 100.363281 229.832031 100.363281 228.367188 C 100.363281 226.902344 100.433594 225.441406 100.578125 223.988281 C 100.71875 222.53125 100.933594 221.082031 101.21875 219.648438 C 101.503906 218.210938 101.859375 216.792969 102.285156 215.394531 C 102.707031 213.992188 103.199219 212.617188 103.757812 211.265625 C 104.316406 209.910156 104.941406 208.589844 105.632812 207.300781 C 106.320312 206.007812 107.070312 204.753906 107.882812 203.539062 C 108.695312 202.320312 109.5625 201.144531 110.492188 200.015625 C 111.417969 198.882812 112.398438 197.800781 113.429688 196.765625 C 114.464844 195.730469 115.546875 194.75 116.675781 193.820312 C 117.804688 192.890625 118.976562 192.019531 120.191406 191.207031 C 121.40625 190.394531 122.660156 189.640625 123.949219 188.953125 C 125.238281 188.261719 126.554688 187.636719 127.90625 187.078125 C 129.257812 186.515625 130.628906 186.023438 132.027344 185.597656 C 133.425781 185.175781 134.84375 184.820312 136.277344 184.535156 C 137.710938 184.25 139.152344 184.035156 140.605469 183.890625 C 142.0625 183.746094 143.519531 183.675781 144.980469 183.675781 C 146.441406 183.675781 147.898438 183.746094 149.355469 183.890625 C 150.808594 184.035156 152.253906 184.25 153.683594 184.535156 C 155.117188 184.820312 156.535156 185.175781 157.933594 185.597656 C 159.332031 186.023438 160.707031 186.515625 162.054688 187.078125 C 163.40625 187.636719 164.726562 188.261719 166.011719 188.953125 C 167.300781 189.640625 168.554688 190.394531 169.769531 191.207031 C 170.984375 192.019531 172.15625 192.890625 173.285156 193.820312 C 174.414062 194.75 175.496094 195.730469 176.53125 196.765625 C 177.5625 197.800781 178.542969 198.882812 179.472656 200.015625 C 180.398438 201.144531 181.265625 202.320312 182.078125 203.539062 C 182.890625 204.753906 183.640625 206.007812 184.332031 207.300781 C 185.019531 208.589844 185.644531 209.910156 186.203125 211.265625 C 186.761719 212.617188 187.253906 213.992188 187.675781 215.394531 C 188.101562 216.792969 188.457031 218.210938 188.742188 219.648438 C 189.027344 221.082031 189.242188 222.53125 189.382812 223.988281 C 189.527344 225.441406 189.597656 226.902344 189.597656 228.367188 Z M 189.597656 228.367188 " fill-opacity="1" fill-rule="nonzero"/><g clip-path="url(#d05d1504e5)"><path fill="#9266cc" d="M 259.714844 279.445312 C 259.714844 280.90625 259.640625 282.367188 259.5 283.824219 C 259.355469 285.28125 259.140625 286.726562 258.855469 288.164062 C 258.570312 289.597656 258.214844 291.015625 257.792969 292.417969 C 257.367188 293.816406 256.875 295.195312 256.316406 296.546875 C 255.757812 297.898438 255.132812 299.21875 254.445312 300.511719 C 253.753906 301.800781 253.003906 303.054688 252.195312 304.273438 C 251.382812 305.492188 250.511719 306.664062 249.585938 307.796875 C 248.65625 308.925781 247.679688 310.011719 246.644531 311.046875 C 245.609375 312.082031 244.53125 313.0625 243.398438 313.992188 C 242.269531 314.917969 241.097656 315.789062 239.882812 316.605469 C 238.667969 317.417969 237.417969 318.167969 236.128906 318.859375 C 234.839844 319.546875 233.519531 320.175781 232.167969 320.734375 C 230.820312 321.292969 229.445312 321.785156 228.046875 322.210938 C 226.648438 322.636719 225.234375 322.992188 223.800781 323.277344 C 222.367188 323.5625 220.921875 323.777344 219.46875 323.921875 C 218.015625 324.0625 216.554688 324.136719 215.09375 324.136719 C 213.632812 324.136719 212.175781 324.0625 210.722656 323.921875 C 209.265625 323.777344 207.824219 323.5625 206.390625 323.277344 C 204.957031 322.992188 203.542969 322.636719 202.144531 322.210938 C 200.746094 321.785156 199.371094 321.292969 198.019531 320.734375 C 196.671875 320.175781 195.351562 319.546875 194.0625 318.859375 C 192.773438 318.167969 191.519531 317.417969 190.304688 316.605469 C 189.089844 315.789062 187.917969 314.917969 186.789062 313.992188 C 185.660156 313.0625 184.578125 312.082031 183.546875 311.046875 C 182.511719 310.011719 181.53125 308.925781 180.605469 307.796875 C 179.675781 306.664062 178.808594 305.492188 177.996094 304.273438 C 177.183594 303.054688 176.433594 301.800781 175.746094 300.511719 C 175.054688 299.21875 174.433594 297.898438 173.875 296.546875 C 173.3125 295.195312 172.820312 293.816406 172.398438 292.417969 C 171.972656 291.015625 171.617188 289.597656 171.335938 288.164062 C 171.050781 286.726562 170.835938 285.28125 170.691406 283.824219 C 170.546875 282.367188 170.476562 280.90625 170.476562 279.445312 C 170.476562 277.980469 170.546875 276.519531 170.691406 275.0625 C 170.835938 273.605469 171.050781 272.160156 171.335938 270.726562 C 171.617188 269.289062 171.972656 267.871094 172.398438 266.46875 C 172.820312 265.070312 173.3125 263.691406 173.875 262.339844 C 174.433594 260.988281 175.054688 259.667969 175.746094 258.375 C 176.433594 257.085938 177.183594 255.832031 177.996094 254.613281 C 178.808594 253.398438 179.675781 252.222656 180.605469 251.089844 C 181.53125 249.960938 182.511719 248.875 183.546875 247.839844 C 184.578125 246.808594 185.660156 245.824219 186.789062 244.894531 C 187.917969 243.96875 189.089844 243.097656 190.304688 242.285156 C 191.519531 241.46875 192.773438 240.71875 194.0625 240.027344 C 195.351562 239.339844 196.671875 238.714844 198.019531 238.152344 C 199.371094 237.59375 200.746094 237.101562 202.144531 236.675781 C 203.542969 236.25 204.957031 235.894531 206.390625 235.609375 C 207.824219 235.324219 209.265625 235.109375 210.722656 234.96875 C 212.175781 234.824219 213.632812 234.75 215.09375 234.75 C 216.554688 234.75 218.015625 234.824219 219.46875 234.96875 C 220.921875 235.109375 222.367188 235.324219 223.800781 235.609375 C 225.234375 235.894531 226.648438 236.25 228.046875 236.675781 C 229.445312 237.101562 230.820312 237.59375 232.167969 238.152344 C 233.519531 238.714844 234.839844 239.339844 236.128906 240.027344 C 237.417969 240.71875 238.667969 241.46875 239.882812 242.285156 C 241.097656 243.097656 242.269531 243.96875 243.398438 244.894531 C 244.53125 245.824219 245.609375 246.808594 246.644531 247.839844 C 247.679688 248.875 248.65625 249.960938 249.585938 251.089844 C 250.511719 252.222656 251.382812 253.398438 252.195312 254.613281 C 253.003906 255.832031 253.753906 257.085938 254.445312 258.375 C 255.132812 259.667969 255.757812 260.988281 256.316406 262.339844 C 256.875 263.691406 257.367188 265.070312 257.792969 266.46875 C 258.214844 267.871094 258.570312 269.289062 258.855469 270.726562 C 259.140625 272.160156 259.355469 273.605469 259.5 275.0625 C 259.640625 276.519531 259.714844 277.980469 259.714844 279.445312 Z M 259.714844 279.445312 " fill-opacity="1" fill-rule="nonzero"/></g></svg>