<svg xmlns="http://www.w3.org/2000/svg" xmlns:xlink="http://www.w3.org/1999/xlink" width="396" zoomAndPan="magnify" viewBox="0 0 297.12 419.249996" height="559" preserveAspectRatio="xMidYMid meet" version="1.0"><defs><clipPath id="f28de20eed"><path d="M 0 0.246094 L 296.121094 0.246094 L 296.121094 417.203125 L 0 417.203125 Z M 0 0.246094 " clip-rule="nonzero"/></clipPath><clipPath id="44e6b36e1c"><path d="M 57 121 L 257 121 L 257 320 L 57 320 Z M 57 121 " clip-rule="nonzero"/></clipPath><clipPath id="ae974ccafd"><path d="M 46.691406 89.902344 L 264.019531 104.265625 L 249.261719 327.550781 L 31.933594 313.1875 Z M 46.691406 89.902344 " clip-rule="nonzero"/></clipPath><clipPath id="518dd3f6f0"><path d="M 46.691406 89.902344 L 264.019531 104.265625 L 249.261719 327.550781 L 31.933594 313.1875 Z M 46.691406 89.902344 " clip-rule="nonzero"/></clipPath><clipPath id="7bc73701ba"><path d="M 46.691406 89.902344 L 264.019531 104.265625 L 249.261719 327.550781 L 31.933594 313.1875 Z M 46.691406 89.902344 " clip-rule="nonzero"/></clipPath><clipPath id="356e4fabe5"><path d="M 44 119 L 114 119 L 114 163 L 44 163 Z M 44 119 " clip-rule="nonzero"/></clipPath><clipPath id="fbe6d724e6"><path d="M 46.691406 89.902344 L 264.019531 104.265625 L 249.261719 327.550781 L 31.933594 313.1875 Z M 46.691406 89.902344 " clip-rule="nonzero"/></clipPath><clipPath id="774a6760ac"><path d="M 46.691406 89.902344 L 264.019531 104.265625 L 249.261719 327.550781 L 31.933594 313.1875 Z M 46.691406 89.902344 " clip-rule="nonzero"/></clipPath><clipPath id="6a9b04f622"><path d="M 46.691406 89.902344 L 264.019531 104.265625 L 249.261719 327.550781 L 31.933594 313.1875 Z M 46.691406 89.902344 " clip-rule="nonzero"/></clipPath><clipPath id="1f5fab2dd0"><path d="M 84 102 L 173 102 L 173 141 L 84 141 Z M 84 102 " clip-rule="nonzero"/></clipPath><clipPath id="c074e7c53b"><path d="M 46.691406 89.902344 L 264.019531 104.265625 L 249.261719 327.550781 L 31.933594 313.1875 Z M 46.691406 89.902344 " clip-rule="nonzero"/></clipPath><clipPath id="7806b6817b"><path d="M 46.691406 89.902344 L 264.019531 104.265625 L 249.261719 327.550781 L 31.933594 313.1875 Z M 46.691406 89.902344 " clip-rule="nonzero"/></clipPath><clipPath id="fab2ab6bde"><path d="M 46.691406 89.902344 L 264.019531 104.265625 L 249.261719 327.550781 L 31.933594 313.1875 Z M 46.691406 89.902344 " clip-rule="nonzero"/></clipPath></defs><g clip-path="url(#f28de20eed)"><path fill="#ffffff" d="M 0 0.246094 L 296.121094 0.246094 L 296.121094 417.203125 L 0 417.203125 Z M 0 0.246094 " fill-opacity="1" fill-rule="nonzero"/><path fill="#ffd2e7" d="M 0 0.246094 L 296.121094 0.246094 L 296.121094 417.203125 L 0 417.203125 Z M 0 0.246094 " fill-opacity="1" fill-rule="nonzero"/></g><g clip-path="url(#44e6b36e1c)"><g clip-path="url(#ae974ccafd)"><g clip-path="url(#518dd3f6f0)"><g clip-path="url(#7bc73701ba)"><path fill="#f4900c" d="M 57.238281 213.90625 C 60.863281 159.097656 108.269531 117.597656 163.125 121.222656 C 217.988281 124.847656 259.523438 172.222656 255.898438 227.035156 C 252.277344 281.847656 204.867188 323.34375 150.007812 319.714844 C 95.152344 316.089844 53.617188 268.71875 57.238281 213.90625 Z M 57.238281 213.90625 " fill-opacity="1" fill-rule="nonzero"/></g></g></g></g><g clip-path="url(#356e4fabe5)"><g clip-path="url(#fbe6d724e6)"><g clip-path="url(#774a6760ac)"><g clip-path="url(#6a9b04f622)"><path fill="#662113" d="M 112.628906 145.585938 C 111.128906 143.871094 107.910156 144.082031 104.425781 145.769531 C 85.644531 128.023438 53.785156 120.359375 52.34375 120.019531 C 49.089844 119.269531 45.859375 121.265625 45.09375 124.503906 C 44.328125 127.738281 46.332031 130.988281 49.578125 131.75 C 49.894531 131.828125 78.941406 138.851562 95.40625 153.871094 C 93.542969 156.917969 93.050781 159.847656 94.480469 161.46875 C 96.671875 163.976562 102.519531 162.449219 107.53125 158.0625 C 112.542969 153.679688 114.824219 148.09375 112.628906 145.585938 Z M 112.628906 145.585938 " fill-opacity="1" fill-rule="nonzero"/></g></g></g></g><g clip-path="url(#1f5fab2dd0)"><g clip-path="url(#c074e7c53b)"><g clip-path="url(#7806b6817b)"><g clip-path="url(#fab2ab6bde)"><path fill="#5c913b" d="M 172.957031 109.789062 C 172.957031 109.789062 152.542969 134.527344 128.59375 138.714844 C 110.371094 141.902344 86.507812 140.746094 84.496094 135.054688 C 82.488281 129.371094 95.523438 112 116.554688 104.59375 C 137.582031 97.195312 172.957031 109.789062 172.957031 109.789062 Z M 172.957031 109.789062 " fill-opacity="1" fill-rule="nonzero"/></g></g></g></g></svg>