<svg xmlns="http://www.w3.org/2000/svg" xmlns:xlink="http://www.w3.org/1999/xlink" width="396" zoomAndPan="magnify" viewBox="0 0 297.12 419.249996" height="559" preserveAspectRatio="xMidYMid meet" version="1.0"><defs><clipPath id="4032bc955d"><path d="M 0 0.246094 L 296.121094 0.246094 L 296.121094 417.203125 L 0 417.203125 Z M 0 0.246094 " clip-rule="nonzero"/></clipPath></defs><g clip-path="url(#4032bc955d)"><path fill="#ffffff" d="M 0 0.246094 L 296.121094 0.246094 L 296.121094 417.203125 L 0 417.203125 Z M 0 0.246094 " fill-opacity="1" fill-rule="nonzero"/><path fill="#ffd2e7" d="M 0 0.246094 L 296.121094 0.246094 L 296.121094 417.203125 L 0 417.203125 Z M 0 0.246094 " fill-opacity="1" fill-rule="nonzero"/></g><path fill="#a6d388" d="M 76.117188 145.273438 C 86.546875 124.5625 126.714844 132.679688 154.71875 159.546875 C 172.445312 176.542969 207.671875 169.390625 230.296875 191.121094 C 253.257812 213.167969 251.71875 252.652344 210.230469 294.757812 C 176.8125 328.679688 130.796875 328.679688 103.421875 304.910156 C 74.578125 279.863281 87.144531 248.320312 74.421875 215.617188 C 61.695312 182.910156 46.003906 147.101562 76.117188 145.273438 Z M 76.117188 145.273438 " fill-opacity="1" fill-rule="nonzero"/><path fill="#662113" d="M 79.382812 148.148438 C 76.554688 151.09375 72.058594 151.363281 69.34375 148.757812 C 48.257812 128.519531 43.589844 99.171875 43.40625 97.648438 C 42.921875 93.796875 45.695312 90.042969 49.578125 89.246094 C 53.472656 88.453125 57.015625 90.9375 57.5 94.78125 C 57.539062 95.109375 61.820312 121.054688 79.578125 138.097656 C 82.292969 140.707031 82.210938 145.203125 79.382812 148.148438 Z M 79.382812 148.148438 " fill-opacity="1" fill-rule="nonzero"/></svg>