<svg xmlns="http://www.w3.org/2000/svg" xmlns:xlink="http://www.w3.org/1999/xlink" width="396" zoomAndPan="magnify" viewBox="0 0 297.12 419.249996" height="559" preserveAspectRatio="xMidYMid meet" version="1.0"><defs><clipPath id="1d898188b2"><path d="M 0 0.246094 L 296.121094 0.246094 L 296.121094 417.203125 L 0 417.203125 Z M 0 0.246094 " clip-rule="nonzero"/></clipPath><clipPath id="6d2f0ac6de"><path d="M 107 65 L 261.316406 65 L 261.316406 211 L 107 211 Z M 107 65 " clip-rule="nonzero"/></clipPath></defs><g clip-path="url(#1d898188b2)"><path fill="#ffffff" d="M 0 0.246094 L 296.121094 0.246094 L 296.121094 417.203125 L 0 417.203125 Z M 0 0.246094 " fill-opacity="1" fill-rule="nonzero"/><path fill="#ffd2e7" d="M 0 0.246094 L 296.121094 0.246094 L 296.121094 417.203125 L 0 417.203125 Z M 0 0.246094 " fill-opacity="1" fill-rule="nonzero"/></g><g clip-path="url(#6d2f0ac6de)"><path fill="#5c913b" d="M 142.148438 136.898438 C 144.3125 111.03125 125.179688 99.980469 125.179688 99.980469 C 150.191406 100.863281 163.445312 122.082031 163.445312 122.082031 C 169.324219 111.914062 156.050781 90.703125 146.488281 85.171875 C 171.492188 86.054688 175.183594 101.753906 175.183594 101.753906 C 186.933594 81.410156 183.234375 65.71875 183.234375 65.71875 C 192 70.78125 197.050781 82.246094 199.976562 93.191406 L 218.101562 72.304688 C 219.898438 80.472656 216.875 97.132812 213.621094 111.09375 C 237.507812 97.09375 259.777344 109.921875 259.777344 109.921875 C 228.890625 119.210938 217.164062 139.546875 217.164062 139.546875 C 217.164062 139.546875 248.035156 130.265625 261.308594 151.484375 C 241.003906 150.765625 226.125 155.386719 215.519531 161.105469 C 224.613281 163.363281 240.113281 159.257812 249.574219 171.828125 C 249.574219 171.828125 224.566406 170.945312 219.460938 180.078125 C 236.445312 184.882812 247.414062 197.6875 247.414062 197.6875 C 212.839844 191.289062 176.082031 210.742188 176.082031 210.742188 L 128.238281 183.113281 C 136.28125 147.082031 107.578125 130.5 107.578125 130.5 C 128.878906 115.675781 142.148438 136.898438 142.148438 136.898438 Z M 142.148438 136.898438 " fill-opacity="1" fill-rule="nonzero"/></g><path fill="#ffac33" d="M 53.640625 240.511719 C 34.1875 274.214844 44.117188 316.378906 75.824219 334.691406 C 107.53125 353 149.003906 340.523438 168.449219 306.828125 L 180.875 285.296875 C 200.328125 251.585938 190.390625 209.433594 158.691406 191.125 C 126.984375 172.8125 85.511719 185.28125 66.066406 218.984375 L 53.640625 240.507812 Z M 53.640625 240.511719 " fill-opacity="1" fill-rule="nonzero"/><path fill="#ffcc4d" d="M 45.808594 259.9375 C 47.441406 253.304688 50.03125 246.757812 53.640625 240.511719 L 55.097656 237.984375 L 55.097656 237.992188 L 70.351562 231.515625 L 65.472656 220.007812 L 66.058594 218.984375 C 81.894531 191.53125 112.347656 178.179688 140.230469 184.054688 L 146.628906 199.117188 L 161.359375 192.859375 C 187.003906 209.457031 197.066406 242.285156 186.863281 272.078125 L 179 275.417969 L 182.132812 282.816406 C 181.703125 283.636719 181.335938 284.476562 180.859375 285.28125 L 168.433594 306.8125 C 163.078125 316.097656 156.003906 323.707031 147.964844 329.566406 L 146.171875 325.359375 L 130.917969 331.835938 L 133.453125 337.8125 C 128.253906 339.976562 122.839844 341.449219 117.335938 342.285156 L 115.65625 338.320312 L 104.683594 342.972656 C 95.742188 342.597656 86.859375 340.34375 78.546875 336.066406 L 78.679688 336.011719 L 72.203125 320.75 L 62.90625 324.695312 C 58.828125 320.617188 55.300781 316.058594 52.476562 311.117188 L 65.714844 305.484375 L 59.242188 290.222656 L 46.207031 295.753906 C 44.714844 290.277344 43.851562 284.59375 43.734375 278.804688 L 52.765625 274.972656 L 46.292969 259.710938 Z M 94.378906 203.285156 L 79.132812 209.769531 L 85.605469 225.023438 L 100.863281 218.546875 Z M 92.082031 240.289062 L 98.554688 255.542969 L 113.808594 249.074219 L 107.335938 233.816406 Z M 124.898438 190.335938 L 109.644531 196.808594 L 116.125 212.078125 L 131.378906 205.601562 Z M 137.847656 220.855469 L 122.589844 227.332031 L 129.066406 242.589844 L 144.3125 236.113281 Z M 168.355469 207.910156 L 153.109375 214.386719 L 159.582031 229.628906 L 174.832031 223.152344 Z M 187.777344 253.6875 L 181.304688 238.421875 L 166.050781 244.898438 L 172.53125 260.164062 Z M 154.96875 303.628906 L 170.226562 297.160156 L 163.75 281.902344 L 148.496094 288.378906 Z M 157.277344 266.632812 L 150.792969 251.375 L 135.539062 257.84375 L 142.023438 273.109375 Z M 124.46875 316.582031 L 139.714844 310.105469 L 133.242188 294.855469 L 117.992188 301.339844 Z M 126.765625 279.585938 L 120.292969 264.320312 L 105.039062 270.804688 L 111.511719 286.070312 Z M 93.949219 329.550781 L 109.203125 323.074219 L 102.730469 307.816406 L 87.476562 314.292969 Z M 80.992188 299.015625 L 96.242188 292.546875 L 89.765625 277.277344 L 74.519531 283.753906 Z M 68.046875 268.503906 L 83.300781 262.027344 L 76.824219 246.773438 L 61.570312 253.242188 Z M 68.046875 268.503906 " fill-opacity="1" fill-rule="nonzero"/></svg>