<svg xmlns="http://www.w3.org/2000/svg" xmlns:xlink="http://www.w3.org/1999/xlink" width="396" zoomAndPan="magnify" viewBox="0 0 297.12 419.249996" height="559" preserveAspectRatio="xMidYMid meet" version="1.0"><defs><clipPath id="3c1b86c7a3"><path d="M 0 0.246094 L 296.121094 0.246094 L 296.121094 418.257812 L 0 418.257812 Z M 0 0.246094 " clip-rule="nonzero"/></clipPath><clipPath id="f5091e77b2"><path d="M 0 0.246094 L 296.121094 0.246094 L 296.121094 417.203125 L 0 417.203125 Z M 0 0.246094 " clip-rule="nonzero"/></clipPath></defs><g clip-path="url(#3c1b86c7a3)"><path fill="#ffffff" d="M 0 0.246094 L 296.121094 0.246094 L 296.121094 1692.695312 L 0 1692.695312 Z M 0 0.246094 " fill-opacity="1" fill-rule="nonzero"/></g><g clip-path="url(#f5091e77b2)"><path fill="#ffffff" d="M 0 0.246094 L 296.121094 0.246094 L 296.121094 417.203125 L 0 417.203125 Z M 0 0.246094 " fill-opacity="1" fill-rule="nonzero"/><path fill="#ffd2e7" d="M 0 0.246094 L 296.121094 0.246094 L 296.121094 417.203125 L 0 417.203125 Z M 0 0.246094 " fill-opacity="1" fill-rule="nonzero"/></g><path fill="#5c913b" d="M 38.144531 127.96875 C 31.476562 142.992188 27.746094 159.523438 27.746094 176.917969 C 27.746094 245.207031 84.683594 300.5625 154.921875 300.5625 C 209.648438 300.5625 256.167969 266.882812 274.097656 219.734375 Z M 38.144531 127.96875 " fill-opacity="1" fill-rule="nonzero"/><path fill="#ffe8b6" d="M 51.285156 133.078125 C 45.261719 146.515625 41.875 161.324219 41.875 176.917969 C 41.875 237.617188 92.492188 286.828125 154.921875 286.828125 C 203.699219 286.828125 245.144531 256.730469 260.992188 214.632812 Z M 51.285156 133.078125 " fill-opacity="1" fill-rule="nonzero"/><path fill="#dd2e44" d="M 64.421875 138.195312 C 59.042969 150.050781 56.007812 163.128906 56.007812 176.917969 C 56.007812 230.035156 100.292969 273.085938 154.921875 273.085938 C 197.75 273.085938 234.125 246.570312 247.871094 209.53125 Z M 64.421875 138.195312 " fill-opacity="1" fill-rule="nonzero"/><path fill="#000000" d="M 90.738281 182.410156 C 88.570312 185.660156 85.503906 187.410156 83.878906 186.328125 C 82.253906 185.25 82.691406 181.746094 84.859375 178.496094 C 87.03125 175.246094 90.097656 173.492188 91.722656 174.574219 C 93.347656 175.652344 92.910156 179.160156 90.738281 182.410156 Z M 133.132812 189.472656 C 130.960938 192.722656 127.894531 194.476562 126.269531 193.394531 C 124.644531 192.3125 125.085938 188.808594 127.253906 185.558594 C 129.421875 182.308594 132.488281 180.558594 134.113281 181.636719 C 135.738281 182.71875 135.300781 186.222656 133.132812 189.472656 Z M 169.039062 222.527344 C 169.390625 226.417969 168.105469 229.703125 166.167969 229.878906 C 164.226562 230.058594 162.367188 227.054688 162.015625 223.160156 C 161.65625 219.269531 162.949219 215.984375 164.882812 215.8125 C 166.828125 215.628906 168.683594 218.625 169.039062 222.527344 Z M 105.449219 208.394531 C 105.804688 212.289062 104.515625 215.574219 102.582031 215.75 C 100.636719 215.925781 98.78125 212.925781 98.425781 209.03125 C 98.074219 205.136719 99.359375 201.851562 101.296875 201.683594 C 103.246094 201.5 105.097656 204.496094 105.449219 208.394531 Z M 133.011719 246.167969 C 130.660156 249.28125 127.5 250.851562 125.945312 249.679688 C 124.386719 248.503906 125.035156 245.027344 127.394531 241.914062 C 129.746094 238.796875 132.914062 237.230469 134.460938 238.402344 C 136.019531 239.574219 135.378906 243.042969 133.011719 246.167969 Z M 189.789062 249.375 C 191.71875 252.773438 191.902344 256.289062 190.210938 257.25 C 188.511719 258.21875 185.578125 256.242188 183.648438 252.84375 C 181.71875 249.453125 181.535156 245.925781 183.230469 244.964844 C 184.933594 243.988281 187.859375 245.960938 189.789062 249.375 Z M 140.210938 213.847656 C 142.351562 217.121094 142.769531 220.617188 141.136719 221.683594 C 139.503906 222.757812 136.453125 220.976562 134.3125 217.714844 C 132.171875 214.449219 131.761719 210.945312 133.386719 209.886719 C 135.019531 208.796875 138.070312 210.570312 140.210938 213.847656 Z M 203.664062 224.96875 C 201.3125 228.085938 198.152344 229.65625 196.59375 228.480469 C 195.03125 227.308594 195.679688 223.832031 198.042969 220.71875 C 200.394531 217.59375 203.550781 216.03125 205.105469 217.207031 C 206.675781 218.378906 206.03125 221.847656 203.664062 224.96875 Z M 203.664062 224.96875 " fill-opacity="1" fill-rule="nonzero"/></svg>